# xmcd CD database file
#
# Track frame offsets:
#	150
#	16271
#	28726
#	51282
#	71269
#	84714
#	103310
#	112689
#	123294
#	135536
#	160089
#	184000
#	197039
#	220150
#	243267
#	255830
#	270150
#	290517
#
# Disc length: 4041 seconds
#
# Revision: 2
# Processed by: cddbd v1.5.1PL2 Copyright (c) Steve Scherf et al.
# Submitted via: jetAudio 5
#
DISCID=ee0fc712
DTITLE=Various Artist - SPIRITS OF BLUES  Volume 1
DYEAR=1900
DGENRE=
TTITLE0=Dream Woman
TTITLE1=The Sky Is Crying
TTITLE2=The Thrill Is Gone
TTITLE3=Baby Please Don't Go
TTITLE4=T.Bone Shuffle
TTITLE5=Shake'em On Down
TTITLE6=Smile At Me
TTITLE7=Coffee House Blues
TTITLE8=I'm In The Mood
TTITLE9=Born In The Bottoms
TTITLE10=A Good Woman
TTITLE11=Dust My Broom
TTITLE12=Sweet Little Angel
TTITLE13=Manish Boy
TTITLE14=Bluebird
TTITLE15=Please Don't Quit Me
TTITLE16=I'll Take Care Of You
TTITLE17=Wake Up The Dead
EXTD=
EXTT0=
EXTT1=
EXTT2=
EXTT3=
EXTT4=
EXTT5=
EXTT6=
EXTT7=
EXTT8=
EXTT9=
EXTT10=
EXTT11=
EXTT12=
EXTT13=
EXTT14=
EXTT15=
EXTT16=
EXTT17=
PLAYORDER=
